<svg width="25" height="24" viewBox="0 0 25 24" fill="none" xmlns="http://www.w3.org/2000/svg">
<g clip-path="url(#clip0_804_735)">
<path d="M20.75 7.5C21.2656 7.5 21.75 7.59766 22.2031 7.79297C22.6563 7.98828 23.0508 8.25781 23.3867 8.60156C23.7227 8.94531 23.9922 9.34375 24.1953 9.79688C24.3984 10.25 24.5 10.7344 24.5 11.25C24.5 11.6953 24.4258 12.1211 24.2773 12.5273C24.1289 12.9336 23.9219 13.2969 23.6562 13.6172C23.3906 13.9375 23.0742 14.2148 22.707 14.4492C22.3398 14.6836 21.9375 14.8437 21.5 14.9297V16.125C21.5 16.8203 21.4141 17.4961 21.2422 18.1523C21.0703 18.8086 20.8281 19.4336 20.5156 20.0273C20.2031 20.6211 19.8203 21.1562 19.3672 21.6328C18.9141 22.1094 18.4102 22.5273 17.8555 22.8867C17.3008 23.2461 16.6953 23.5195 16.0391 23.707C15.3828 23.8945 14.7031 23.9922 14 24C13.2891 24 12.6094 23.9023 11.9609 23.707C11.3125 23.5117 10.7109 23.2383 10.1562 22.8867C9.60156 22.5352 9.09766 22.1172 8.64453 21.6328C8.19141 21.1484 7.80859 20.6133 7.49609 20.0273C7.18359 19.4414 6.9375 18.8203 6.75781 18.1641C6.57813 17.5078 6.49219 16.8281 6.5 16.125V13.4414C5.53906 13.3555 4.6875 13.125 3.94531 12.75C3.20313 12.375 2.57422 11.8828 2.05859 11.2734C1.54297 10.6641 1.15625 9.95703 0.898438 9.15234C0.640625 8.34766 0.507813 7.47656 0.5 6.53906V0H4.25C4.45313 0 4.62891 0.0742187 4.77734 0.222656C4.92578 0.371094 5 0.546875 5 0.75C5 0.953125 4.92578 1.12891 4.77734 1.27734C4.62891 1.42578 4.45313 1.5 4.25 1.5H2V6.53906C2 7.36719 2.11328 8.11719 2.33984 8.78906C2.56641 9.46094 2.90625 10.0352 3.35938 10.5117C3.8125 10.9883 4.35937 11.3555 5 11.6133C5.64063 11.8711 6.39062 12 7.25 12C8.03906 12 8.75781 11.8789 9.40625 11.6367C10.0547 11.3945 10.6055 11.0469 11.0586 10.5938C11.5117 10.1406 11.8672 9.59375 12.125 8.95312C12.3828 8.3125 12.5078 7.58984 12.5 6.78516V1.5H10.25C10.0469 1.5 9.87109 1.42578 9.72266 1.27734C9.57422 1.12891 9.5 0.953125 9.5 0.75C9.5 0.546875 9.57422 0.371094 9.72266 0.222656C9.87109 0.0742187 10.0469 0 10.25 0H14V6.53906C14 7.47656 13.8672 8.34766 13.6016 9.15234C13.3359 9.95703 12.9492 10.6641 12.4414 11.2734C11.9336 11.8828 11.3086 12.375 10.5664 12.75C9.82422 13.125 8.96875 13.3555 8 13.4414V16.125C8 16.9609 8.14844 17.7617 8.44531 18.5273C8.74219 19.293 9.16016 19.9727 9.69922 20.5664C10.2383 21.1602 10.8711 21.6289 11.5977 21.9727C12.3242 22.3164 13.125 22.4922 14 22.5C14.8672 22.5 15.6641 22.3242 16.3906 21.9727C17.1172 21.6211 17.75 21.1523 18.2891 20.5664C18.8281 19.9805 19.2461 19.3047 19.543 18.5391C19.8398 17.7734 19.9922 16.9688 20 16.125V14.9297C19.5625 14.8359 19.1602 14.6758 18.793 14.4492C18.4258 14.2227 18.1094 13.9492 17.8438 13.6289C17.5781 13.3086 17.3711 12.9414 17.2227 12.5273C17.0742 12.1133 17 11.6875 17 11.25C17 10.7344 17.0977 10.25 17.293 9.79688C17.4883 9.34375 17.7539 8.94922 18.0898 8.61328C18.4258 8.27734 18.8242 8.00781 19.2852 7.80469C19.7461 7.60156 20.2344 7.5 20.75 7.5ZM20.75 13.5C21.0625 13.5 21.3555 13.4414 21.6289 13.3242C21.9023 13.207 22.1406 13.0469 22.3438 12.8438C22.5469 12.6406 22.707 12.4023 22.8242 12.1289C22.9414 11.8555 23 11.5625 23 11.25C23 10.9375 22.9414 10.6445 22.8242 10.3711C22.707 10.0977 22.5469 9.85938 22.3438 9.65625C22.1406 9.45312 21.9023 9.29297 21.6289 9.17578C21.3555 9.05859 21.0625 9 20.75 9C20.4375 9 20.1445 9.05859 19.8711 9.17578C19.5977 9.29297 19.3594 9.45312 19.1562 9.65625C18.9531 9.85938 18.793 10.0977 18.6758 10.3711C18.5586 10.6445 18.5 10.9375 18.5 11.25C18.5 11.5625 18.5586 11.8555 18.6758 12.1289C18.793 12.4023 18.9531 12.6406 19.1562 12.8438C19.3594 13.0469 19.5977 13.207 19.8711 13.3242C20.1445 13.4414 20.4375 13.5 20.75 13.5Z" fill="#FAF9F9"/>
</g>
<defs>
<clipPath id="clip0_804_735">
<rect width="24" height="24" fill="white" transform="translate(0.5)"/>
</clipPath>
</defs>
</svg>
