<svg width="22" height="21" viewBox="0 0 22 21" fill="none" xmlns="http://www.w3.org/2000/svg">
<path d="M10.8496 0.666504C5.05246 0.666504 0.333252 4.71833 0.333252 9.69925C0.333252 14.6802 5.05246 18.732 10.8496 18.732C11.9342 18.7308 13.0135 18.5831 14.0571 18.2933L17.6918 20.5643C17.791 20.6268 17.9055 20.662 18.0234 20.6661C18.1412 20.6702 18.258 20.6431 18.3615 20.5877C18.465 20.5323 18.5514 20.4506 18.6116 20.3511C18.6719 20.2517 18.7038 20.1381 18.704 20.0224V15.6802C19.5264 14.9058 20.1827 13.9777 20.6342 12.9505C21.0857 11.9233 21.3233 10.8179 21.3331 9.69925C21.3659 4.71833 16.6467 0.666504 10.8496 0.666504ZM17.6129 14.9318C17.5468 14.9919 17.4941 15.0648 17.4579 15.1458C17.4217 15.2268 17.4029 15.3143 17.4026 15.4028V18.8481L14.5237 17.048C14.4434 16.9982 14.3531 16.9661 14.2589 16.9538C14.1647 16.9415 14.069 16.9495 13.9782 16.9771C12.9652 17.2859 11.9104 17.4425 10.8496 17.4416C5.77546 17.4416 1.6478 13.9704 1.6478 9.69925C1.6478 5.42805 5.77546 1.9569 10.8496 1.9569C15.9237 1.9569 20.0514 5.42805 20.0514 9.69925C20.0364 10.6897 19.8119 11.6662 19.3922 12.567C18.9724 13.4677 18.3665 14.273 17.6129 14.9318Z" fill="black"/>
</svg>
