<svg width="25" height="24" viewBox="0 0 25 24" fill="none" xmlns="http://www.w3.org/2000/svg">
<path d="M3.07141 5.78557C3.07141 4.93309 3.41006 4.11553 4.01285 3.51273C4.61565 2.90994 5.43322 2.57129 6.2857 2.57129H18.7143C19.5667 2.57129 20.3843 2.90994 20.9871 3.51273C21.5899 4.11553 21.9286 4.93309 21.9286 5.78557V18.2141C21.9286 19.0666 21.5899 19.8842 20.9871 20.487C20.3843 21.0898 19.5667 21.4284 18.7143 21.4284H6.2857C5.43322 21.4284 4.61565 21.0898 4.01285 20.487C3.41006 19.8842 3.07141 19.0666 3.07141 18.2141V5.78557ZM6.2857 3.857C5.77421 3.857 5.28367 4.06019 4.92199 4.42187C4.56031 4.78355 4.35713 5.27409 4.35713 5.78557V18.2141C4.35713 18.7256 4.56031 19.2162 4.92199 19.5779C5.28367 19.9395 5.77421 20.1427 6.2857 20.1427H14.2143V3.857H6.2857ZM18.7143 20.1427C19.2258 20.1427 19.7163 19.9395 20.078 19.5779C20.4397 19.2162 20.6428 18.7256 20.6428 18.2141V15.857H15.5V20.1427H18.7143ZM20.6428 14.5713V9.42843H15.5V14.5713H20.6428ZM20.6428 8.14272V5.78557C20.6428 5.27409 20.4397 4.78355 20.078 4.42187C19.7163 4.06019 19.2258 3.857 18.7143 3.857H15.5V8.14272H20.6428ZM7.14284 6.42843C6.55141 6.42843 6.07141 6.90843 6.07141 7.49986V10.4999C6.07141 11.0913 6.55141 11.5713 7.14284 11.5713H11.4286C12.02 11.5713 12.5 11.0913 12.5 10.4999V7.49986C12.5 6.90843 12.02 6.42843 11.4286 6.42843H7.14284ZM7.35713 10.2856V7.71415H11.2143V10.2856H7.35713ZM6.07141 13.9284C6.07141 13.7579 6.13914 13.5944 6.2597 13.4739C6.38026 13.3533 6.54377 13.2856 6.71427 13.2856H11.8571C12.0276 13.2856 12.1911 13.3533 12.3117 13.4739C12.4323 13.5944 12.5 13.7579 12.5 13.9284C12.5 14.0989 12.4323 14.2624 12.3117 14.383C12.1911 14.5036 12.0276 14.5713 11.8571 14.5713H6.71427C6.54377 14.5713 6.38026 14.5036 6.2597 14.383C6.13914 14.2624 6.07141 14.0989 6.07141 13.9284ZM6.71427 16.2856C6.54377 16.2856 6.38026 16.3533 6.2597 16.4739C6.13914 16.5944 6.07141 16.7579 6.07141 16.9284C6.07141 17.0989 6.13914 17.2624 6.2597 17.383C6.38026 17.5036 6.54377 17.5713 6.71427 17.5713H11.8571C12.0276 17.5713 12.1911 17.5036 12.3117 17.383C12.4323 17.2624 12.5 17.0989 12.5 16.9284C12.5 16.7579 12.4323 16.5944 12.3117 16.4739C12.1911 16.3533 12.0276 16.2856 11.8571 16.2856H6.71427Z" fill="white"/>
</svg>
