<svg width="25" height="24" viewBox="0 0 25 24" fill="none" xmlns="http://www.w3.org/2000/svg">
<path d="M20.75 20.0625H4.25C3.9019 20.0625 3.56806 19.9242 3.32192 19.6781C3.07578 19.4319 2.9375 19.0981 2.9375 18.75V5.25C2.9375 4.9019 3.07578 4.56806 3.32192 4.32192C3.56806 4.07578 3.9019 3.9375 4.25 3.9375H20.75C21.0981 3.9375 21.4319 4.07578 21.6781 4.32192C21.9242 4.56806 22.0625 4.9019 22.0625 5.25V18.75C22.0625 19.0981 21.9242 19.4319 21.6781 19.6781C21.4319 19.9242 21.0981 20.0625 20.75 20.0625ZM4.25 18.9375H20.75C20.7997 18.9375 20.8474 18.9177 20.8826 18.8826C20.9177 18.8474 20.9375 18.7997 20.9375 18.75V8.66531L18.1747 11.4281C18.0528 11.55 17.9081 11.6467 17.7489 11.7127C17.5896 11.7786 17.4189 11.8126 17.2466 11.8126C17.0742 11.8126 16.9035 11.7786 16.7443 11.7127C16.585 11.6467 16.4403 11.55 16.3184 11.4281L14.3103 9.42L10.0531 13.6781C9.93125 13.8 9.78655 13.8967 9.6273 13.9627C9.46805 14.0286 9.29737 14.0626 9.125 14.0626C8.95263 14.0626 8.78195 14.0286 8.6227 13.9627C8.46345 13.8967 8.31875 13.8 8.19687 13.6781L4.0625 9.54375V18.75C4.0625 18.7997 4.08225 18.8474 4.11742 18.8826C4.15258 18.9177 4.20027 18.9375 4.25 18.9375ZM4.0625 5.25V7.95281L8.99188 12.8822C9.00931 12.8998 9.03004 12.9137 9.05289 12.9232C9.07574 12.9327 9.10025 12.9376 9.125 12.9376C9.14975 12.9376 9.17426 12.9327 9.19711 12.9232C9.21996 12.9137 9.24069 12.8998 9.25812 12.8822L17.0778 5.0625H4.25C4.20027 5.0625 4.15258 5.08225 4.11742 5.11742C4.08225 5.15258 4.0625 5.20027 4.0625 5.25ZM20.75 5.0625H18.6688L15.1063 8.625L17.1134 10.6331C17.1309 10.6506 17.1515 10.6644 17.1743 10.6738C17.1971 10.6833 17.2215 10.6881 17.2461 10.6881C17.2707 10.6881 17.2951 10.6833 17.3179 10.6738C17.3407 10.6644 17.3613 10.6506 17.3787 10.6331L20.9412 7.07063V5.25C20.9413 5.22506 20.9363 5.20037 20.9266 5.17737C20.917 5.15437 20.9028 5.13354 20.885 5.11607C20.8672 5.09861 20.8461 5.08488 20.8229 5.07568C20.7997 5.06648 20.7749 5.062 20.75 5.0625ZM14.1875 14.625C14.1875 14.8104 14.2425 14.9917 14.3455 15.1458C14.4485 15.3 14.5949 15.4202 14.7662 15.4911C14.9375 15.5621 15.126 15.5807 15.3079 15.5445C15.4898 15.5083 15.6568 15.419 15.7879 15.2879C15.919 15.1568 16.0083 14.9898 16.0445 14.8079C16.0807 14.626 16.0621 14.4375 15.9911 14.2662C15.9202 14.0949 15.8 13.9485 15.6458 13.8455C15.4917 13.7425 15.3104 13.6875 15.125 13.6875C14.8764 13.6875 14.6379 13.7863 14.4621 13.9621C14.2863 14.1379 14.1875 14.3764 14.1875 14.625Z" fill="black"/>
</svg>
