<svg width="29" height="29" viewBox="0 0 29 29" fill="none" xmlns="http://www.w3.org/2000/svg">
<g filter="url(#filter0_d_766_2451)">
<path d="M22.75 20.0625H6.25C5.9019 20.0625 5.56806 19.9242 5.32192 19.6781C5.07578 19.4319 4.9375 19.0981 4.9375 18.75V5.25C4.9375 4.9019 5.07578 4.56806 5.32192 4.32192C5.56806 4.07578 5.9019 3.9375 6.25 3.9375H22.75C23.0981 3.9375 23.4319 4.07578 23.6781 4.32192C23.9242 4.56806 24.0625 4.9019 24.0625 5.25V18.75C24.0625 19.0981 23.9242 19.4319 23.6781 19.6781C23.4319 19.9242 23.0981 20.0625 22.75 20.0625ZM6.25 18.9375H22.75C22.7997 18.9375 22.8474 18.9177 22.8826 18.8826C22.9177 18.8474 22.9375 18.7997 22.9375 18.75V8.66531L20.1747 11.4281C20.0528 11.55 19.9081 11.6467 19.7489 11.7127C19.5896 11.7786 19.4189 11.8126 19.2466 11.8126C19.0742 11.8126 18.9035 11.7786 18.7443 11.7127C18.585 11.6467 18.4403 11.55 18.3184 11.4281L16.3103 9.42L12.0531 13.6781C11.9312 13.8 11.7866 13.8967 11.6273 13.9627C11.4681 14.0286 11.2974 14.0626 11.125 14.0626C10.9526 14.0626 10.7819 14.0286 10.6227 13.9627C10.4634 13.8967 10.3188 13.8 10.1969 13.6781L6.0625 9.54375V18.75C6.0625 18.7997 6.08225 18.8474 6.11742 18.8826C6.15258 18.9177 6.20027 18.9375 6.25 18.9375ZM6.0625 5.25V7.95281L10.9919 12.8822C11.0093 12.8998 11.03 12.9137 11.0529 12.9232C11.0757 12.9327 11.1002 12.9376 11.125 12.9376C11.1498 12.9376 11.1743 12.9327 11.1971 12.9232C11.22 12.9137 11.2407 12.8998 11.2581 12.8822L19.0778 5.0625H6.25C6.20027 5.0625 6.15258 5.08225 6.11742 5.11742C6.08225 5.15258 6.0625 5.20027 6.0625 5.25ZM22.75 5.0625H20.6688L17.1063 8.625L19.1134 10.6331C19.1309 10.6506 19.1515 10.6644 19.1743 10.6738C19.1971 10.6833 19.2215 10.6881 19.2461 10.6881C19.2707 10.6881 19.2951 10.6833 19.3179 10.6738C19.3407 10.6644 19.3613 10.6506 19.3787 10.6331L22.9412 7.07063V5.25C22.9413 5.22506 22.9363 5.20037 22.9266 5.17737C22.917 5.15437 22.9028 5.13354 22.885 5.11607C22.8672 5.09861 22.8461 5.08488 22.8229 5.07568C22.7997 5.06648 22.7749 5.062 22.75 5.0625ZM16.1875 14.625C16.1875 14.8104 16.2425 14.9917 16.3455 15.1458C16.4485 15.3 16.5949 15.4202 16.7662 15.4911C16.9375 15.5621 17.126 15.5807 17.3079 15.5445C17.4898 15.5083 17.6568 15.419 17.7879 15.2879C17.919 15.1568 18.0083 14.9898 18.0445 14.8079C18.0807 14.626 18.0621 14.4375 17.9911 14.2662C17.9202 14.0949 17.8 13.9485 17.6458 13.8455C17.4917 13.7425 17.3104 13.6875 17.125 13.6875C16.8764 13.6875 16.6379 13.7863 16.4621 13.9621C16.2863 14.1379 16.1875 14.3764 16.1875 14.625Z" fill="#FAF9F9"/>
</g>
<defs>
<filter id="filter0_d_766_2451" x="-1.5" y="0" width="32" height="32" filterUnits="userSpaceOnUse" color-interpolation-filters="sRGB">
<feFlood flood-opacity="0" result="BackgroundImageFix"/>
<feColorMatrix in="SourceAlpha" type="matrix" values="0 0 0 0 0 0 0 0 0 0 0 0 0 0 0 0 0 0 127 0" result="hardAlpha"/>
<feOffset dy="4"/>
<feGaussianBlur stdDeviation="2"/>
<feComposite in2="hardAlpha" operator="out"/>
<feColorMatrix type="matrix" values="0 0 0 0 0 0 0 0 0 0 0 0 0 0 0 0 0 0 0.25 0"/>
<feBlend mode="normal" in2="BackgroundImageFix" result="effect1_dropShadow_766_2451"/>
<feBlend mode="normal" in="SourceGraphic" in2="effect1_dropShadow_766_2451" result="shape"/>
</filter>
</defs>
</svg>
