<svg width="25" height="24" viewBox="0 0 25 24" fill="none" xmlns="http://www.w3.org/2000/svg">
<path d="M22.6836 11.836L13.6273 2.78443L13.0203 2.1774C12.882 2.04 12.6949 1.96289 12.5 1.96289C12.305 1.96289 12.118 2.04 11.9797 2.1774L2.31639 11.836C2.17467 11.9772 2.06266 12.1453 1.98698 12.3305C1.91131 12.5156 1.87349 12.7141 1.87577 12.9141C1.88514 13.7391 2.57186 14.3977 3.39686 14.3977H4.39296V22.0313H20.607V14.3977H21.6242C22.025 14.3977 22.4023 14.2407 22.6859 13.9571C22.8256 13.8179 22.9362 13.6524 23.0114 13.4701C23.0867 13.2879 23.125 13.0925 23.1242 12.8954C23.1242 12.4969 22.9672 12.1196 22.6836 11.836ZM13.8125 20.3438H11.1875V15.5626H13.8125V20.3438ZM18.9195 12.7102V20.3438H15.3125V15.0001C15.3125 14.4821 14.893 14.0626 14.375 14.0626H10.625C10.107 14.0626 9.68749 14.4821 9.68749 15.0001V20.3438H6.08046V12.7102H3.83046L12.5023 4.04537L13.0437 4.58678L21.1719 12.7102H18.9195Z" fill="#FAF9F9"/>
</svg>
