<svg width="24" height="24" viewBox="0 0 24 24" fill="none" xmlns="http://www.w3.org/2000/svg">
<path fill-rule="evenodd" clip-rule="evenodd" d="M15.894 22.239C12.876 22.239 9.325 20.637 6.343 17.657C1.585 12.898 0.342999 6.68601 3.515 3.51401C4.452 2.57801 5.592 2.00801 6.907 1.81801L7.667 1.70801L10.464 8.23001L7.667 9.62801C8.315 10.856 9.297 12.125 10.586 13.414C11.815 14.643 13.083 15.618 14.356 16.31L15.67 13.737L22.153 14.663L22.191 15.49C22.286 17.549 21.696 19.276 20.485 20.486C19.301 21.67 17.692 22.239 15.894 22.239ZM6.461 3.97201C5.886 4.16501 5.372 4.48601 4.929 4.93001C2.629 7.22901 3.925 12.41 7.757 16.243C11.591 20.076 16.771 21.369 19.071 19.071C19.837 18.305 20.113 17.295 20.181 16.401L16.814 15.92L16.168 17.214C15.924 17.702 15.503 18.061 14.982 18.224C14.461 18.389 13.883 18.33 13.399 18.067C11.959 17.284 10.536 16.194 9.171 14.829C7.741 13.399 6.642 11.97 5.903 10.581C5.646 10.096 5.597 9.54201 5.763 9.02001C5.929 8.50101 6.288 8.08201 6.775 7.83801L7.881 7.28501L6.461 3.97201Z" fill="#FAF9F9"/>
</svg>
