<svg width="25" height="24" viewBox="0 0 25 24" fill="none" xmlns="http://www.w3.org/2000/svg">
<path d="M21.138 14.136L21.088 13.639L21.073 13.64L21.056 13.643L21.138 14.136ZM21.138 14.136L21.188 14.634L21.205 14.632L21.221 14.629L21.138 14.136ZM17.098 19.618L17.415 19.231L17.41 19.228L17.098 19.618ZM17.098 19.618L16.781 20.005L16.786 20.009L17.098 19.618ZM7.902 19.618L7.585 19.232L7.578 19.238L7.57 19.245L7.902 19.618ZM7.902 19.618L8.219 20.006L8.227 19.999L8.234 19.993L7.902 19.618ZM3.861 9.86398V9.36398H3.837L3.812 9.36598L3.861 9.86398ZM3.861 9.86398V10.364H3.886L3.911 10.361L3.861 9.86398ZM15.132 3.31098C15.1172 3.12965 15.0962 2.94887 15.069 2.76898C15.0465 2.60968 14.9986 2.45504 14.927 2.31098L14.038 2.76998C14.048 2.78998 14.065 2.82998 14.082 2.93398C14.101 3.04398 14.115 3.18698 14.138 3.40998L15.132 3.31098ZM15.328 4.51398C15.316 4.49898 15.28 4.43798 15.241 4.22398C15.1942 3.92101 15.1592 3.61649 15.134 3.31098L14.138 3.40998C14.178 3.81098 14.211 4.14298 14.257 4.40098C14.302 4.65298 14.372 4.90998 14.533 5.12098L15.328 4.51398ZM15.792 4.70598C15.7046 4.71774 15.6156 4.70617 15.5341 4.67245C15.4527 4.63873 15.3815 4.58406 15.328 4.51398L14.532 5.11998C14.6926 5.33056 14.9061 5.49488 15.1507 5.59622C15.3954 5.69757 15.6625 5.73233 15.925 5.69698L15.792 4.70598ZM16.78 3.99298C16.455 4.25998 16.233 4.44098 16.058 4.56198C15.879 4.68598 15.81 4.70298 15.792 4.70598L15.925 5.69698C16.187 5.66198 16.418 5.52998 16.629 5.38298C16.844 5.23298 17.101 5.02298 17.414 4.76698L16.78 3.99298ZM17.632 3.43198C17.472 3.48298 17.337 3.56398 17.209 3.65498C17.085 3.74298 16.944 3.85898 16.78 3.99298L17.414 4.76698C17.587 4.62498 17.699 4.53398 17.789 4.46998C17.834 4.43438 17.8838 4.40542 17.937 4.38398L17.632 3.43198ZM18.685 3.48398C18.3519 3.3398 17.9777 3.32132 17.632 3.43198L17.937 4.38398C18.052 4.34755 18.1763 4.35395 18.287 4.40198L18.685 3.48398ZM19.477 4.12798C19.327 3.97798 19.198 3.84798 19.084 3.74798C18.966 3.6392 18.8313 3.55006 18.685 3.48398L18.287 4.40198C18.308 4.41098 18.346 4.43198 18.426 4.50198C18.509 4.57398 18.611 4.67598 18.77 4.83498L19.477 4.12798ZM20.37 5.02098L19.477 4.12798L18.77 4.83498L19.663 5.72798L20.37 5.02098ZM21.014 5.81298C20.9476 5.66664 20.8581 5.53192 20.749 5.41398C20.649 5.29998 20.519 5.17098 20.37 5.02098L19.663 5.72798C19.822 5.88698 19.923 5.98898 19.997 6.07198C20.067 6.15198 20.087 6.18998 20.096 6.21098L21.014 5.81298ZM21.066 6.86598C21.1767 6.52025 21.1582 6.14612 21.014 5.81298L20.096 6.21098C20.1437 6.32177 20.1497 6.44608 20.113 6.56098L21.066 6.86598ZM20.505 7.71798C20.639 7.55398 20.755 7.41298 20.843 7.28898C20.933 7.16098 21.015 7.02598 21.066 6.86598L20.113 6.56098C20.0919 6.61411 20.0632 6.66395 20.028 6.70898C19.9328 6.83691 19.8337 6.96197 19.731 7.08398L20.505 7.71798ZM19.792 8.70598C19.795 8.68798 19.812 8.61898 19.936 8.43998C20.057 8.26498 20.238 8.04298 20.505 7.71798L19.731 7.08398C19.475 7.39698 19.264 7.65398 19.115 7.86898C18.968 8.07898 18.836 8.31098 18.801 8.57298L19.792 8.70598ZM19.984 9.16998C19.9139 9.11644 19.8592 9.04532 19.8255 8.96383C19.7918 8.88234 19.7802 8.79338 19.792 8.70598L18.801 8.57298C18.7658 8.83528 18.8007 9.10221 18.902 9.34669C19.0034 9.59116 19.1676 9.80448 19.378 9.96498L19.984 9.16998ZM21.187 9.36498C20.768 9.32298 20.484 9.29498 20.274 9.25698C20.06 9.21798 19.999 9.18198 19.984 9.16998L19.378 9.96498C19.588 10.125 19.845 10.195 20.098 10.241C20.355 10.287 20.686 10.321 21.088 10.361L21.187 9.36498ZM22.187 9.57098C22.0429 9.49939 21.8883 9.45144 21.729 9.42898C21.579 9.40398 21.397 9.38598 21.187 9.36498L21.087 10.36C21.311 10.383 21.454 10.397 21.564 10.416C21.6205 10.4228 21.6757 10.4376 21.728 10.46L22.187 9.57098ZM22.894 10.352C22.7605 10.0147 22.5093 9.73727 22.187 9.57098L21.728 10.46C21.8355 10.5153 21.9194 10.6076 21.964 10.72L22.894 10.352ZM22.999 11.367C22.999 11.156 22.999 10.973 22.989 10.821C22.9826 10.6606 22.9506 10.5022 22.894 10.352L21.964 10.72C21.972 10.741 21.984 10.783 21.991 10.888C21.9985 11.0479 22.0011 11.2079 21.999 11.368L22.999 11.367ZM22.999 12.631V11.367H21.999V12.631H22.999ZM22.894 13.645C22.956 13.489 22.979 13.333 22.989 13.176C22.999 13.025 22.999 12.842 22.999 12.631H21.999C21.999 12.855 21.999 12.999 21.991 13.11C21.99 13.167 21.9809 13.2235 21.964 13.278L22.894 13.645ZM22.187 14.427C22.5095 14.2604 22.7607 13.9826 22.894 13.645L21.964 13.278C21.9194 13.3903 21.8355 13.4827 21.728 13.538L22.187 14.427ZM21.187 14.633C21.397 14.612 21.58 14.593 21.729 14.568C21.884 14.543 22.037 14.504 22.186 14.428L21.728 13.538C21.6757 13.5603 21.6205 13.5752 21.564 13.582C21.454 13.601 21.311 13.615 21.088 13.638L21.187 14.633ZM19.985 14.828C20 14.816 20.061 14.779 20.275 14.741C20.485 14.703 20.769 14.674 21.187 14.633L21.088 13.638C20.687 13.678 20.355 13.71 20.097 13.757C19.845 13.802 19.589 13.872 19.378 14.032L19.985 14.828ZM19.792 15.292C19.7804 15.2045 19.7921 15.1155 19.826 15.034C19.8599 14.9525 19.9147 14.8814 19.985 14.828L19.378 14.032C19.1674 14.1926 19.0031 14.406 18.9018 14.6507C18.8004 14.8954 18.7656 15.1625 18.801 15.425L19.792 15.292ZM20.505 16.28C20.3069 16.0461 20.1171 15.8053 19.936 15.558C19.812 15.38 19.795 15.31 19.792 15.292L18.802 15.426C18.837 15.688 18.969 15.918 19.115 16.129C19.265 16.343 19.475 16.601 19.731 16.913L20.505 16.28ZM21.066 17.132C21.0149 16.9796 20.9396 16.8365 20.843 16.708C20.7347 16.5619 20.622 16.4192 20.505 16.28L19.731 16.913C19.873 17.087 19.964 17.198 20.028 17.289C20.0632 17.3337 20.0918 17.3832 20.113 17.436L21.066 17.132ZM21.014 18.185C21.1582 17.8518 21.1767 17.4777 21.066 17.132L20.113 17.436C20.15 17.5512 20.1439 17.6759 20.096 17.787L21.014 18.185ZM20.371 18.976C20.52 18.827 20.649 18.698 20.749 18.584C20.853 18.465 20.947 18.34 21.014 18.185L20.096 17.787C20.0694 17.8375 20.0357 17.884 19.996 17.925C19.8885 18.0429 19.7774 18.1577 19.663 18.269L20.371 18.976ZM19.477 19.87L20.371 18.976L19.663 18.269L18.77 19.163L19.477 19.87ZM18.685 20.513C18.839 20.446 18.965 20.353 19.084 20.249C19.198 20.149 19.327 20.019 19.477 19.869L18.77 19.163C18.611 19.322 18.509 19.423 18.426 19.496C18.3847 19.5358 18.3379 19.5695 18.287 19.596L18.685 20.513ZM17.632 20.566C17.9778 20.6763 18.352 20.6575 18.685 20.513L18.287 19.596C18.1762 19.6437 18.0519 19.6497 17.937 19.613L17.632 20.566ZM16.78 20.004C16.944 20.138 17.085 20.254 17.209 20.342C17.337 20.433 17.472 20.515 17.632 20.566L17.937 19.613C17.8839 19.5918 17.834 19.5632 17.789 19.528C17.6611 19.4324 17.536 19.333 17.414 19.23L16.78 20.004ZM15.792 19.292C15.81 19.294 15.88 19.312 16.058 19.436C16.233 19.557 16.455 19.738 16.78 20.004L17.414 19.23C17.101 18.975 16.844 18.764 16.629 18.614C16.419 18.468 16.187 18.336 15.925 18.301L15.792 19.292ZM15.328 19.484C15.3815 19.4139 15.4527 19.3592 15.5341 19.3255C15.6156 19.2918 15.7046 19.2802 15.792 19.292L15.925 18.301C15.6628 18.2657 15.3959 18.3004 15.1514 18.4016C14.907 18.5027 14.6936 18.6667 14.533 18.877L15.328 19.484ZM15.133 20.687C15.175 20.268 15.203 19.984 15.241 19.774C15.28 19.56 15.316 19.499 15.328 19.484L14.533 18.877C14.373 19.087 14.303 19.345 14.257 19.597C14.211 19.854 14.177 20.185 14.137 20.587L15.133 20.687ZM14.927 21.687C15.004 21.537 15.042 21.384 15.068 21.229C15.094 21.079 15.112 20.897 15.133 20.687L14.137 20.587C14.1231 20.7465 14.1054 20.9056 14.082 21.064C14.0752 21.1205 14.0604 21.1757 14.038 21.228L14.927 21.687ZM14.146 22.394C14.4832 22.2605 14.7607 22.0093 14.927 21.687L14.038 21.228C13.9827 21.3355 13.8903 21.4193 13.778 21.464L14.146 22.394ZM13.131 22.499C13.342 22.499 13.525 22.499 13.677 22.489C13.833 22.479 13.99 22.456 14.146 22.394L13.778 21.464C13.7236 21.4809 13.667 21.49 13.61 21.491C13.5 21.499 13.355 21.499 13.13 21.499L13.131 22.499ZM11.867 22.499H13.131L13.13 21.499H11.867V22.499ZM10.852 22.394C11.009 22.456 11.165 22.479 11.322 22.489C11.473 22.499 11.656 22.499 11.867 22.499V21.499C11.643 21.499 11.499 21.499 11.388 21.491C11.331 21.49 11.2744 21.4809 11.22 21.464L10.852 22.394ZM10.071 21.687C10.2373 22.0093 10.5148 22.2605 10.852 22.394L11.22 21.464C11.1077 21.4193 11.0153 21.3355 10.96 21.228L10.071 21.687ZM9.865 20.687C9.885 20.8983 9.90633 21.079 9.929 21.229C9.955 21.384 9.994 21.537 10.071 21.687L10.96 21.228C10.9376 21.1757 10.9228 21.1205 10.916 21.064C10.8926 20.9059 10.8739 20.7472 10.86 20.588L9.865 20.687ZM9.67 19.484C9.682 19.499 9.718 19.56 9.757 19.774C9.795 19.984 9.823 20.269 9.865 20.687L10.86 20.588C10.82 20.187 10.787 19.855 10.741 19.597C10.696 19.345 10.626 19.088 10.465 18.877L9.67 19.484ZM9.206 19.292C9.2934 19.2802 9.38236 19.2918 9.46385 19.3255C9.54534 19.3592 9.61646 19.4139 9.67 19.484L10.465 18.877C10.3045 18.6666 10.0912 18.5033 9.84671 18.402C9.60223 18.3007 9.3353 18.2658 9.073 18.301L9.206 19.292ZM8.218 20.005C8.543 19.738 8.765 19.557 8.94 19.436C9.119 19.312 9.188 19.294 9.206 19.292L9.073 18.301C8.811 18.336 8.58 18.468 8.369 18.615C8.154 18.764 7.897 18.975 7.584 19.231L8.218 20.005ZM7.366 20.566C7.526 20.515 7.661 20.434 7.789 20.343C7.913 20.255 8.054 20.139 8.218 20.005L7.584 19.231C7.46199 19.3337 7.33693 19.4327 7.209 19.528C7.16397 19.5632 7.11413 19.5918 7.061 19.613L7.366 20.566ZM6.313 20.515C6.64614 20.6592 7.02027 20.6766 7.366 20.566L7.061 19.613C6.9461 19.6497 6.8218 19.6437 6.711 19.596L6.313 20.515ZM5.521 19.87C5.671 20.02 5.8 20.15 5.914 20.25C6.032 20.353 6.159 20.448 6.313 20.515L6.711 19.596C6.66012 19.5695 6.61331 19.5358 6.572 19.496C6.45404 19.3884 6.33932 19.2774 6.228 19.163L5.521 19.87ZM4.628 18.977L5.521 19.87L6.228 19.163L5.335 18.27L4.628 18.977ZM3.984 18.185C4.051 18.339 4.145 18.465 4.249 18.584C4.349 18.698 4.479 18.827 4.628 18.977L5.335 18.27C5.22025 18.1587 5.10887 18.044 5.001 17.926C4.96119 17.8847 4.92752 17.8379 4.901 17.787L3.984 18.185ZM3.932 17.132C3.82135 17.4777 3.83982 17.8518 3.984 18.185L4.901 17.787C4.85297 17.6763 4.84758 17.552 4.884 17.437L3.932 17.132ZM4.493 16.28C4.359 16.444 4.243 16.585 4.155 16.709C4.05853 16.8371 3.98324 16.98 3.932 17.132L4.884 17.437C4.90545 17.3838 4.93441 17.3339 4.97 17.289C5.034 17.199 5.125 17.087 5.267 16.914L4.493 16.28ZM5.206 15.292C5.203 15.31 5.186 15.379 5.062 15.558C4.94 15.733 4.76 15.955 4.493 16.28L5.267 16.914C5.523 16.601 5.734 16.344 5.883 16.129C6.03 15.919 6.162 15.687 6.197 15.425L5.206 15.292ZM5.014 14.828C5.08408 14.8815 5.13875 14.9526 5.17247 15.0341C5.20619 15.1156 5.21776 15.2046 5.206 15.292L6.197 15.425C6.23217 15.1627 6.19732 14.8957 6.09598 14.6513C5.99464 14.4068 5.83042 14.1935 5.62 14.033L5.014 14.828ZM3.811 14.634C4.23 14.675 4.514 14.703 4.724 14.741C4.938 14.78 4.999 14.816 5.014 14.828L5.62 14.032C5.41 13.872 5.153 13.802 4.9 13.757C4.643 13.711 4.312 13.677 3.91 13.637L3.811 14.634ZM2.811 14.427C2.961 14.504 3.114 14.542 3.269 14.568C3.419 14.594 3.6 14.613 3.811 14.634L3.911 13.638C3.75148 13.6241 3.5924 13.6054 3.434 13.582C3.37752 13.5752 3.3223 13.5603 3.27 13.538L2.811 14.427ZM2.104 13.645C2.23729 13.9826 2.48848 14.2604 2.811 14.427L3.27 13.538C3.16249 13.4827 3.07865 13.3903 3.034 13.278L2.104 13.645ZM2 12.633C2 12.844 2 13.027 2.01 13.179C2.01647 13.339 2.04854 13.4971 2.105 13.647L3.035 13.28C3.01806 13.2255 3.00897 13.169 3.008 13.112C3.00053 12.9521 2.99786 12.792 3 12.632L2 12.633ZM2 11.369V12.633H3V11.369H2ZM2.105 10.354C2.04834 10.5045 2.01626 10.6632 2.01 10.824C2 10.975 2 11.158 2 11.369H3C3 11.145 3 11.001 3.008 10.89C3.00897 10.833 3.01806 10.7764 3.035 10.722L2.105 10.354ZM2.812 9.57298C2.48966 9.73927 2.23849 10.0167 2.105 10.354L3.035 10.722C3.07965 10.6096 3.16349 10.5173 3.271 10.462L2.812 9.57298ZM3.812 9.36598C3.60067 9.38598 3.42 9.40831 3.27 9.43098C3.11071 9.45344 2.95606 9.50139 2.812 9.57298L3.271 10.462C3.291 10.452 3.331 10.435 3.435 10.418C3.545 10.399 3.688 10.385 3.911 10.362L3.812 9.36598ZM5.015 9.17198C5 9.18398 4.939 9.21998 4.725 9.25898C4.515 9.29698 4.231 9.32398 3.812 9.36598L3.911 10.362C4.312 10.322 4.645 10.289 4.902 10.243C5.155 10.198 5.412 10.128 5.622 9.96698L5.015 9.17198ZM5.207 8.70798C5.21876 8.79538 5.20719 8.88434 5.17347 8.96583C5.13975 9.04732 5.08508 9.11844 5.015 9.17198L5.622 9.96698C5.83224 9.80636 5.99626 9.593 6.09742 9.34853C6.19858 9.10406 6.23328 8.83619 6.198 8.57398L5.207 8.70798ZM4.494 7.71898C4.761 8.04498 4.942 8.26698 5.064 8.44198C5.188 8.62098 5.204 8.68998 5.207 8.70798L6.198 8.57398C6.163 8.31198 6.031 8.08198 5.884 7.87098C5.735 7.65598 5.524 7.39898 5.268 7.08598L4.494 7.71898ZM3.933 6.86698C3.983 7.02698 4.065 7.16298 4.156 7.29098C4.244 7.41398 4.36 7.55598 4.494 7.71898L5.268 7.08598C5.16527 6.96364 5.06622 6.83825 4.971 6.70998C4.93549 6.66532 4.90653 6.61582 4.885 6.56298L3.933 6.86698ZM3.985 5.81498C3.84107 6.14783 3.8226 6.52155 3.933 6.86698L4.885 6.56298C4.84858 6.44796 4.85497 6.32365 4.903 6.21298L3.985 5.81498ZM4.629 5.02298C4.479 5.17198 4.349 5.30098 4.249 5.41598C4.14022 5.534 4.05109 5.66871 3.985 5.81498L4.903 6.21298C4.9296 6.16245 4.96327 6.11498 5.003 6.07398C5.11004 5.95555 5.22111 5.84081 5.336 5.72998L4.629 5.02298ZM5.522 4.12898L4.629 5.02298L5.336 5.72998L6.229 4.83598L5.522 4.12898ZM6.314 3.48598C6.16773 3.55206 6.03302 3.6412 5.915 3.74998C5.801 3.84998 5.671 3.97898 5.522 4.12898L6.229 4.83598C6.388 4.67798 6.49 4.57598 6.573 4.50298C6.653 4.43298 6.691 4.41298 6.712 4.40298L6.314 3.48598ZM7.367 3.43298C7.02115 3.32264 6.64702 3.34147 6.314 3.48598L6.712 4.40298C6.82267 4.35495 6.94698 4.34955 7.062 4.38598L7.367 3.43298ZM8.219 3.99498C8.055 3.86098 7.914 3.74498 7.79 3.65698C7.6619 3.56015 7.51908 3.48452 7.367 3.43298L7.062 4.38598C7.11513 4.40711 7.16497 4.43574 7.21 4.47098C7.3 4.53598 7.412 4.62698 7.586 4.76898L8.219 3.99498ZM9.207 4.70798C9.189 4.70498 9.12 4.68798 8.941 4.56398C8.69368 4.38255 8.45287 4.19343 8.219 3.99498L7.586 4.76898C7.898 5.02498 8.156 5.23598 8.37 5.38498C8.58 5.53098 8.812 5.66298 9.074 5.69898L9.207 4.70798ZM9.671 4.51498C9.61758 4.58524 9.54651 4.64011 9.46501 4.67401C9.38351 4.7079 9.29449 4.71962 9.207 4.70798L9.074 5.69898C9.33637 5.73444 9.60345 5.69883 9.84811 5.59767C10.0928 5.4965 10.3063 5.33238 10.467 5.12198L9.671 4.51498ZM9.866 3.31298C9.824 3.73098 9.796 4.01598 9.758 4.22498C9.719 4.43898 9.683 4.49998 9.671 4.51498L10.467 5.12198C10.627 4.91198 10.697 4.65498 10.742 4.40198C10.788 4.14498 10.822 3.81398 10.862 3.41198L9.866 3.31298ZM10.072 2.31298C9.995 2.46298 9.956 2.61598 9.93 2.77098C9.905 2.92098 9.887 3.10198 9.866 3.31298L10.861 3.41298C10.8749 3.25345 10.8936 3.09438 10.917 2.93598C10.9238 2.8795 10.9386 2.82428 10.961 2.77198L10.072 2.31298ZM10.854 1.60598C10.5162 1.73951 10.2383 1.99008 10.072 2.31298L10.961 2.77198C11.0163 2.66446 11.1087 2.58062 11.221 2.53598L10.854 1.60598ZM11.868 1.50098C11.657 1.50098 11.474 1.50098 11.322 1.51098C11.1619 1.51745 11.0039 1.54952 10.854 1.60598L11.221 2.53598C11.2754 2.51904 11.332 2.50995 11.389 2.50898C11.499 2.50098 11.644 2.50098 11.869 2.50098L11.868 1.50098ZM13.132 1.50098H11.868V2.50098H13.132V1.50098ZM14.147 1.60598C13.9964 1.54931 13.8377 1.51724 13.677 1.51098C13.526 1.50098 13.343 1.50098 13.132 1.50098V2.50098C13.356 2.50098 13.5 2.50098 13.611 2.50898C13.668 2.50995 13.7246 2.51904 13.779 2.53598L14.147 1.60598ZM14.928 2.31298C14.7615 1.99046 14.4836 1.73926 14.146 1.60598L13.779 2.53598C13.8913 2.58062 13.9837 2.66446 14.039 2.77198L14.928 2.31298ZM16 12C16 12.9282 15.6313 13.8185 14.9749 14.4748C14.3185 15.1312 13.4283 15.5 12.5 15.5V16.5C13.6935 16.5 14.8381 16.0259 15.682 15.182C16.5259 14.338 17 13.1934 17 12H16ZM12.5 8.49998C13.4283 8.49998 14.3185 8.86873 14.9749 9.5251C15.6313 10.1815 16 11.0717 16 12H17C17 10.8065 16.5259 9.66191 15.682 8.818C14.8381 7.97408 13.6935 7.49998 12.5 7.49998V8.49998ZM9 12C9 11.0717 9.36875 10.1815 10.0251 9.5251C10.6815 8.86873 11.5717 8.49998 12.5 8.49998V7.49998C11.3065 7.49998 10.1619 7.97408 9.31802 8.818C8.47411 9.66191 8 10.8065 8 12H9ZM12.5 15.5C11.5717 15.5 10.6815 15.1312 10.0251 14.4748C9.36875 13.8185 9 12.9282 9 12H8C8 13.1934 8.47411 14.338 9.31802 15.182C10.1619 16.0259 11.3065 16.5 12.5 16.5V15.5Z" fill="#FAF9F9"/>
</svg>
