<svg width="25" height="24" viewBox="0 0 25 24" fill="none" xmlns="http://www.w3.org/2000/svg">
<g clip-path="url(#clip0_804_733)">
<path d="M12.5 6C13.0469 6 13.5625 5.92187 14.0469 5.76562C14.5312 5.60938 15.0156 5.4375 15.5 5.25C15.9844 5.0625 16.4648 4.89062 16.9414 4.73438C17.418 4.57813 17.9375 4.5 18.5 4.5V6C18.1562 6 17.8281 6.03516 17.5156 6.10547C17.2031 6.17578 16.8984 6.26953 16.6016 6.38672C16.3047 6.50391 16 6.625 15.6875 6.75C15.375 6.875 15.0586 6.99609 14.7383 7.11328C14.418 7.23047 14.0703 7.32031 13.6953 7.38281C13.3203 7.44531 12.9219 7.48437 12.5 7.5C12.0703 7.5 11.6719 7.46484 11.3047 7.39453C10.9375 7.32422 10.5898 7.23047 10.2617 7.11328C9.93358 6.99609 9.62108 6.875 9.32421 6.75C9.02733 6.625 8.72265 6.50391 8.41015 6.38672C8.09765 6.26953 7.78905 6.17969 7.48437 6.11719C7.17968 6.05469 6.85155 6.01563 6.49999 6V4.5C7.03905 4.5 7.55468 4.57813 8.04687 4.73438C8.53905 4.89062 9.02343 5.0625 9.49999 5.25C9.97655 5.4375 10.4609 5.60938 10.9531 5.76562C11.4453 5.92187 11.9609 6 12.5 6ZM24.5 6.78516C24.5 8.16797 24.3984 9.57422 24.1953 11.0039C23.9922 12.4336 23.6953 13.8516 23.3047 15.2578C22.9141 16.6641 22.4219 18.0273 21.8281 19.3477C21.2344 20.668 20.5586 21.9141 19.8008 23.0859C19.6133 23.3672 19.375 23.5898 19.0859 23.7539C18.7969 23.918 18.4805 24 18.1367 24C17.707 24 17.3203 23.8789 16.9766 23.6367C16.6328 23.3945 16.3945 23.0664 16.2617 22.6523L14.1758 16.418C13.9023 16.4492 13.625 16.4687 13.3437 16.4766C13.0625 16.4844 12.7812 16.4922 12.5 16.5C12.2187 16.5 11.9375 16.4961 11.6562 16.4883C11.375 16.4805 11.0976 16.457 10.8242 16.418L8.73827 22.6523C8.60546 23.0586 8.36718 23.3828 8.02343 23.625C7.67968 23.8672 7.29296 23.9922 6.86327 24C6.51952 24 6.20312 23.918 5.91405 23.7539C5.62499 23.5898 5.38671 23.3672 5.19921 23.0859C4.43358 21.9219 3.7578 20.6797 3.17187 19.3594C2.58593 18.0391 2.09765 16.6758 1.70702 15.2695C1.3164 13.8633 1.01562 12.4453 0.804679 11.0156C0.593741 9.58594 0.492179 8.17578 0.499991 6.78516C0.499991 5.91016 0.632804 5.06641 0.898429 4.25391C1.16405 3.44141 1.55077 2.71875 2.05859 2.08594C2.5664 1.45312 3.1914 0.949219 3.93358 0.574219C4.67577 0.199219 5.52343 0.0078125 6.47655 0C7.03124 0 7.55077 0.078125 8.03515 0.234375C8.51952 0.390625 9.0039 0.5625 9.48827 0.75C9.97265 0.9375 10.4531 1.10938 10.9297 1.26562C11.4062 1.42187 11.9297 1.5 12.5 1.5C13.0547 1.5 13.5742 1.42187 14.0586 1.26562C14.543 1.10938 15.0273 0.9375 15.5117 0.75C15.9961 0.5625 16.4766 0.390625 16.9531 0.234375C17.4297 0.078125 17.9531 0 18.5234 0C19.4766 0 20.3242 0.1875 21.0664 0.5625C21.8086 0.9375 22.4336 1.44141 22.9414 2.07422C23.4492 2.70703 23.8359 3.42969 24.1016 4.24219C24.3672 5.05469 24.5 5.90234 24.5 6.78516ZM23 6.80859C23 6.08203 22.9023 5.39844 22.707 4.75781C22.5117 4.11719 22.2187 3.55469 21.8281 3.07031C21.4375 2.58594 20.9453 2.20312 20.3516 1.92188C19.7578 1.64062 19.0742 1.5 18.3008 1.5C17.8476 1.5 17.4141 1.57813 17 1.73438C16.5859 1.89062 16.1484 2.0625 15.6875 2.25C15.2266 2.4375 14.7422 2.60938 14.2344 2.76562C13.7266 2.92187 13.1484 3 12.5 3C11.8516 3 11.2734 2.92187 10.7656 2.76562C10.2578 2.60938 9.77343 2.4375 9.31249 2.25C8.85155 2.0625 8.40624 1.89062 7.97655 1.73438C7.54687 1.57813 7.0703 1.5 6.54687 1.5C5.78905 1.5 5.12499 1.64844 4.55468 1.94531C3.98437 2.24219 3.51171 2.63672 3.13671 3.12891C2.76171 3.62109 2.47655 4.18359 2.28124 4.81641C2.08593 5.44922 1.99218 6.11328 1.99999 6.80859C1.99999 7.57422 2.04296 8.39844 2.1289 9.28125C2.21484 10.1641 2.34765 11.0781 2.52734 12.0234C2.70702 12.9687 2.92187 13.9102 3.17187 14.8477C3.42187 15.7852 3.71483 16.707 4.05077 17.6133C4.38671 18.5195 4.7578 19.3633 5.16405 20.1445C5.5703 20.9258 6.0078 21.6367 6.47655 22.2773C6.59374 22.4258 6.74218 22.5 6.92187 22.5C7.01562 22.5 7.13671 22.3594 7.28515 22.0781C7.43358 21.7969 7.58983 21.4297 7.7539 20.9766C7.91796 20.5234 8.09374 20.0312 8.28124 19.5C8.46874 18.9688 8.63671 18.4492 8.78515 17.9414C8.93358 17.4336 9.07812 16.9727 9.21874 16.5586C9.35937 16.1445 9.45312 15.8438 9.49999 15.6562C9.56249 15.4531 9.67968 15.2773 9.85155 15.1289C10.0234 14.9805 10.2266 14.9023 10.4609 14.8945C10.8047 14.8945 11.1445 14.9102 11.4805 14.9414C11.8164 14.9727 12.1562 14.9922 12.5 15C12.8437 15 13.1836 14.9844 13.5195 14.9531C13.8555 14.9219 14.1953 14.9023 14.5391 14.8945C14.7656 14.8945 14.9648 14.9687 15.1367 15.1172C15.3086 15.2656 15.4297 15.4453 15.5 15.6562C15.5625 15.8438 15.6562 16.1445 15.7812 16.5586C15.9062 16.9727 16.0469 17.4297 16.2031 17.9297C16.3594 18.4297 16.5312 18.9531 16.7187 19.5C16.9062 20.0469 17.0781 20.5391 17.2344 20.9766C17.3906 21.4141 17.5508 21.7773 17.7148 22.0664C17.8789 22.3555 18 22.5 18.0781 22.5C18.2578 22.5 18.4062 22.4258 18.5234 22.2773C18.9922 21.6523 19.4297 20.9414 19.8359 20.1445C20.2422 19.3477 20.6094 18.5039 20.9375 17.6133C21.2656 16.7227 21.5586 15.8047 21.8164 14.8594C22.0742 13.9141 22.2891 12.9727 22.4609 12.0352C22.6328 11.0977 22.7656 10.1836 22.8594 9.29297C22.9531 8.40234 23 7.57422 23 6.80859Z" fill="#FAF9F9"/>
</g>
<defs>
<clipPath id="clip0_804_733">
<rect width="24" height="24" fill="white" transform="translate(0.5)"/>
</clipPath>
</defs>
</svg>
