<svg width="24" height="25" viewBox="0 0 24 25" fill="none" xmlns="http://www.w3.org/2000/svg">
<path d="M4.39688 5.87187C4.17656 5.92344 4.31719 5.91406 4.13437 5.9375C3.35156 6.10625 3.93281 6.25625 4.39688 5.87187ZM18.1641 6.18594C18.2203 6.14844 18.4172 5.95625 17.8031 5.76875C17.8406 5.96094 17.6766 5.94219 17.6766 6.05C18.1313 6.4625 18.3188 7.17969 18.9 7.32969C19.0125 6.81406 18.3844 6.56094 18.1641 6.18594ZM3.97969 5.72188C4.05 6.13906 4.36406 5.28125 4.36875 4.97656C4.24687 5.04688 4.125 5.11719 3.99844 5.17344C4.29375 5.32344 4.03594 5.48281 3.71719 5.72188C3.07031 6.52813 4.32188 5.09375 3.97969 5.72188ZM12 0.5C5.37188 0.5 0 5.87188 0 12.5C0 19.1234 5.37188 24.5 12 24.5C18.6281 24.5 24 19.1234 24 12.5C24 5.87188 18.6281 0.5 12 0.5ZM12.3187 4.52188L12.375 4.54062C12.15 4.83125 13.5469 5.67969 12.5438 5.75C11.6063 6.01719 12.9375 5.50625 12.2109 5.59531C12.5953 5.06094 11.9062 5.05156 12.3187 4.52188ZM6.62812 5.29062C6.29062 5.00937 5.23125 5.675 5.60156 5.51562C6.52031 5.15469 5.6625 5.55313 5.87813 5.98438C5.68125 6.39219 5.8125 5.58125 5.325 6.06406C4.97344 6.14375 4.11094 6.94062 4.21875 6.69687C4.19062 7.07656 3.19219 7.52656 3.05625 8.15937C2.72812 9.03594 2.97656 8.12656 2.91563 7.78437C2.44688 7.18906 1.59375 8.79219 1.84688 9.425C2.27344 8.675 2.24063 9.34531 1.93125 9.67813C2.24531 10.2547 1.64531 11.0047 2.24062 11.4312C2.50312 11.4922 3.02813 10.55 2.79844 11.5297C2.95781 10.6813 3.23906 11.7313 3.69375 11.4969C3.72188 11.9422 3.99844 11.7359 4.05937 12.275C4.81875 12.2187 5.5125 13.5031 4.60781 13.7469C4.74375 13.7094 5.01094 13.9484 5.32031 13.7656C5.84531 14.1828 7.22812 14.2344 7.26562 15.2656C6.31406 15.7203 7.03125 16.9672 6.20625 17.4125C5.25937 17.2719 5.88281 18.5797 5.48438 18.4297C5.64375 19.3719 4.52813 18.3078 4.95938 18.8281C5.75156 19.3156 4.6125 19.2172 4.96875 19.5734C4.57031 19.4891 5.21719 20.3141 5.325 20.6188C5.89687 21.5469 4.83281 20.4125 4.51875 20.1031C4.21875 19.5031 3.51094 18.3547 3.31406 17.4125C3.20156 16.0437 2.14219 15.125 1.89844 13.7891C1.65469 13.0438 2.56875 11.8484 2.07656 11.4312C1.65 11.0984 1.82344 9.95938 1.57031 9.35938C2.20312 6.61719 4.21406 4.30625 6.62812 2.9375C6.37969 3.12031 8.04844 2.46406 7.85625 2.62344C7.80469 2.74062 8.83125 2.17812 9.45 2.09375C9.38438 2.10313 7.84219 2.65625 8.26875 2.58125C7.60781 2.90469 8.20312 2.72188 8.53125 2.55781C7.875 3.04063 7.36875 2.90469 6.62344 3.33125C5.87344 3.52813 6.02812 4.30625 5.49375 4.69531C5.80781 4.75156 6.59531 3.88437 7.05469 3.57969C8.10938 3.06875 6.52031 4.50781 7.52344 3.88906C7.18594 4.20313 7.25625 4.70469 7.05 4.84531C6.94687 4.81719 7.45781 5.08906 6.62812 5.29062ZM8.26875 3.13438C8.16094 3.27969 8.01094 3.59375 7.92188 3.40156C7.8 3.4625 7.75313 3.725 7.52344 3.51406C7.65938 3.41563 7.8 3.18125 7.53281 3.32656C7.65469 3.19531 8.74219 2.825 8.68125 2.68437C8.87344 2.5625 8.85469 2.50156 8.63437 2.57656C8.52187 2.53906 8.90156 2.22031 9.40781 2.17812C9.47812 2.17812 9.50625 2.225 9.37969 2.21094C8.61563 2.44531 8.94375 2.37969 9.45938 2.21094C9.2625 2.32344 9.12656 2.35625 9.09375 2.40781C9.60938 2.22031 9.06562 2.54375 9.18281 2.52031C9.0375 2.59531 9.20625 2.61875 8.925 2.72656C8.97656 2.68438 8.46563 3.03125 8.77031 2.92812C8.475 3.20937 8.34375 3.21406 8.26875 3.13438ZM8.71875 3.80469C8.72813 3.35469 9.375 3.06875 9.29531 3.04531C10.0922 2.67031 9.01875 3.05938 9.64688 2.72188C9.88125 2.69844 10.3781 1.94844 11.0672 1.90156C11.8266 1.67187 11.475 1.91563 12.0375 1.7L11.925 1.79375C11.8266 1.80781 11.9484 1.98125 11.5922 2.24375C11.5547 2.65156 10.9125 2.46406 11.2313 2.9C11.025 2.60469 10.7156 2.89062 11.1047 2.91875C10.6875 3.2375 9.71719 3.29375 9.25312 3.82344C8.95312 4.25469 8.67656 4.11875 8.71875 3.80469ZM12.0516 5.30469C11.7328 6.07344 11.4234 5.19219 11.9859 5.05156C12.1266 5.12656 12.1828 5.15 12.0516 5.30469ZM10.8516 3.76719C10.7578 3.42031 10.8328 3.60313 11.3906 3.43906C11.775 3.71563 11.0484 3.89844 10.8516 3.76719ZM19.5797 17.525C19.1391 16.7656 20.1141 16.0625 20.4422 15.425C20.4 16.1703 20.3063 16.9063 19.5797 17.525ZM21.2391 8.84844C20.7609 8.88594 20.3297 8.99844 19.8984 8.72656C18.9047 7.63906 20.0812 9.95469 20.4094 9.00781C21.5906 9.45781 20.3906 11.3984 19.6453 11.1969C19.2281 10.2969 18.7125 9.30781 17.8031 8.86719C18.5016 9.64062 18.8484 10.5922 19.5984 11.2906C19.65 12.2656 20.6391 10.9344 20.5781 11.6891C20.6719 12.9875 19.1109 13.7656 19.3828 15.0687C19.9641 16.2547 18.2625 16.4703 18.4547 17.5344C17.7703 18.2984 17.0391 19.3297 15.8109 19.1656C15.8109 18.5188 15.4828 17.9703 15.4078 17.3047C14.7422 16.4609 16.1109 15.5562 15.2625 14.675C14.2828 14.4547 15.4641 13.1047 14.4562 13.2313C13.8516 12.6266 12.9656 13.2125 12.0984 13.2172C11.0109 13.3203 9.89063 11.8813 10.3734 10.8641C9.98906 9.80469 11.5922 9.49531 11.6344 8.5625C12.4031 7.92031 13.4953 8 14.5359 7.85C14.4609 8.59531 15.2484 8.6 15.8438 8.84844C16.1766 8.04219 17.2125 8.97969 17.9203 8.46875C18.1641 7.27813 17.2313 7.99531 16.6969 7.61563C16.05 6.66875 18.0797 7.12813 17.8688 6.63125C17.0813 6.62656 17.5266 5.66094 16.9688 6.2C17.4703 6.28906 16.8797 6.68281 16.8937 6.23281C16.1344 6.0125 16.8656 7.09531 16.4813 7.19844C15.8953 6.95469 16.1719 7.475 16.2328 7.55469C15.9797 8.10312 15.6703 6.74844 14.9531 6.78594C14.2406 6.13438 14.6719 7.08125 15.2906 7.23594C15.1594 7.27344 15.3656 7.8125 15.2016 7.58281C14.6906 6.87969 13.7203 6.41094 13.1437 7.27344C13.0828 8.07969 11.4422 8.30938 11.7047 7.36719C11.3203 6.39219 12.8953 7.33906 12.75 6.56094C11.7375 5.89063 13.0266 6.10625 13.3688 5.47812C14.1469 5.50156 13.4016 4.84062 13.7672 4.64844C13.7297 5.36563 14.3625 5.22969 14.8641 5.09375C14.7422 4.68125 15.1641 4.69531 14.9062 4.35312C16.0687 3.88906 14.0203 4.56875 14.4328 3.55156C13.9312 3.20469 14.2219 4.31563 14.4328 4.43281C14.4469 4.775 14.1562 5.19688 13.7578 4.47969C13.1766 4.85938 13.2375 4.09531 13.2 4.175C13.1344 3.87969 13.6406 3.86562 13.6453 3.35C13.6031 3.02187 13.6125 2.84844 13.8469 2.82969C13.8656 2.87656 14.8078 2.89062 15.1406 3.27969C14.2313 3.09687 15.0047 3.42969 15.4125 3.61719C14.9766 3.275 15.5859 3.61719 15.2297 3.22813C15.3703 3.25625 14.8406 2.69375 15.3844 3.18594C15.0891 2.83437 15.9609 2.9375 15.4453 2.675C16.2 2.88594 15.7547 2.69375 15.3094 2.50156C14.0813 1.77031 17.4797 3.49062 16.0922 2.72656C16.9781 2.91875 14.1984 2.04219 15.4641 2.42656C14.9812 2.21562 15.45 2.33281 15.8859 2.46875C15.1031 2.225 13.9313 1.77031 13.9781 1.75156C14.25 1.77031 14.5172 1.83125 14.775 1.90625C15.5766 2.14531 14.5453 1.85 14.7656 1.85469C17.5219 2.5625 19.9359 4.40937 21.4031 6.82344C21.7453 7.18437 22.6781 9.57031 22.1906 8.51094C22.4109 9.35469 22.4437 10.2641 22.5609 11.1266C22.3172 10.8547 22.0453 9.85156 21.8109 9.29375C21.7125 9.50938 21.6 8.98906 21.2391 8.84844Z" fill="black"/>
</svg>
